<?xml version="1.0" encoding="UTF-8" standalone="no"?>
<!-- Created with Inkscape (http://www.inkscape.org/) -->

<svg
   xmlns:dc="http://purl.org/dc/elements/1.1/"
   xmlns:cc="http://creativecommons.org/ns#"
   xmlns:rdf="http://www.w3.org/1999/02/22-rdf-syntax-ns#"
   xmlns:svg="http://www.w3.org/2000/svg"
   xmlns="http://www.w3.org/2000/svg"
   xmlns:sodipodi="http://sodipodi.sourceforge.net/DTD/sodipodi-0.dtd"
   xmlns:inkscape="http://www.inkscape.org/namespaces/inkscape"
   version="1.0"
   width="324pt"
   height="324pt"
   viewBox="0 0 324 324"
   id="svg2"
   inkscape:version="0.48.2 r9819"
   sodipodi:docname="gers_en_detail_.svg">
  <sodipodi:namedview
     pagecolor="#ffffff"
     bordercolor="#666666"
     borderopacity="1"
     objecttolerance="10"
     gridtolerance="10"
     guidetolerance="10"
     inkscape:pageopacity="0"
     inkscape:pageshadow="2"
     inkscape:window-width="1600"
     inkscape:window-height="848"
     id="namedview3025"
     showgrid="false"
     inkscape:zoom="0.82408494"
     inkscape:cx="180.04496"
     inkscape:cy="172.04231"
     inkscape:window-x="-8"
     inkscape:window-y="22"
     inkscape:window-maximized="1"
     inkscape:current-layer="ubenthier" />
  <defs
     id="defs80" />
  <metadata
     id="metadata4">
Created by potrace 1.11, written by Peter Selinger 2001-2013
<rdf:RDF>
  <cc:Work
     rdf:about="">
    <dc:format>image/svg+xml</dc:format>
    <dc:type
       rdf:resource="http://purl.org/dc/dcmitype/StillImage" />
    <dc:title></dc:title>
  </cc:Work>
</rdf:RDF>
</metadata>
  <g
     transform="matrix(0.1,0,0,-0.1,0,324)"
     id="g6"
     style="fill:#000000;stroke:none">
    <path
       d="m 1902,2686 c -25,-43 -69,-55 -107,-30 -22,14 -28,15 -35,4 -5,-8 -26,-14 -49,-14 -61,-1 -50,-23 24,-46 54,-17 59,-23 35,-45 -11,-10 -20,-31 -20,-46 0,-22 -5,-29 -30,-34 -37,-8 -37,-11 -4,-42 18,-17 25,-32 22,-52 -1,-16 6,-44 17,-64 16,-30 17,-38 5,-52 -20,-24 -69,-47 -83,-39 -7,4 -3,-2 7,-14 11,-12 28,-22 38,-22 10,0 22,-8 25,-17 4,-10 11,-21 16,-24 5,-4 5,-15 -2,-27 -14,-26 -14,-77 -1,-102 8,-15 5,-22 -12,-34 -12,-9 -33,-16 -45,-16 -15,0 -23,-6 -23,-17 0,-30 13,-38 65,-41 53,-4 137,-44 132,-64 -3,-16 62,-28 89,-16 19,9 28,6 54,-16 36,-30 100,-37 100,-10 0,8 5,12 11,9 16,-11 59,4 59,20 0,20 17,27 39,16 16,-9 21,-6 31,18 10,25 9,36 -9,77 -12,26 -19,49 -17,51 2,2 39,-8 81,-23 74,-26 78,-27 91,-9 7,10 15,23 17,29 3,8 8,7 18,-1 7,-7 28,-13 46,-13 26,0 33,4 33,19 0,11 4,22 9,25 5,3 7,15 4,26 -4,15 0,20 13,20 17,0 16,3 -4,18 -20,15 -23,26 -21,63 4,58 -21,98 -57,91 -14,-2 -40,3 -59,14 -28,15 -38,16 -60,6 -40,-18 -63,-14 -81,13 -14,21 -14,30 -5,54 7,16 23,33 36,39 13,6 42,39 65,72 39,57 41,65 35,107 -6,44 -6,45 22,43 15,-1 32,-2 37,-1 10,1 -38,41 -49,41 -4,0 -32,-18 -64,-40 -31,-22 -62,-40 -69,-40 -7,0 -12,14 -12,33 0,61 -10,79 -38,72 -32,-8 -72,-50 -72,-76 0,-16 -7,-19 -50,-19 -44,0 -50,3 -50,21 0,20 -22,47 -91,107 l -37,32 -20,-34 z m -36,-505 c -10,-11 -15,-30 -13,-51 4,-37 23,-51 33,-26 8,22 24,20 24,-3 0,-14 -10,-20 -42,-24 -41,-6 -66,1 -40,10 14,6 17,93 2,93 -20,0 -9,19 13,22 32,6 40,-2 23,-21 z m 352,-54 c 2,-23 7,-35 14,-31 6,4 9,1 6,-7 -7,-20 -59,-17 -72,4 -11,17 -3,28 29,40 6,3 6,8 2,13 -4,5 -12,2 -17,-6 -5,-8 -12,-11 -16,-7 -11,10 17,38 35,35 11,-2 17,-16 19,-41 z m 88,-8 c -1,-55 -19,-78 -50,-66 -17,7 -13,27 5,27 6,0 7,-5 3,-11 -4,-7 -1,-10 6,-7 19,6 24,28 7,28 -8,0 -20,7 -28,16 -16,20 -2,46 32,55 13,4 25,7 25,8 1,1 1,-22 0,-50 z m 95,39 c 1,-7 0,-25 -1,-40 -1,-18 4,-28 12,-28 10,0 10,-2 -2,-9 -22,-15 -29,-4 -23,34 4,28 2,35 -10,35 -21,0 -32,-37 -17,-55 10,-12 9,-16 -5,-21 -9,-4 -21,-2 -28,5 -8,8 -8,11 1,11 7,0 12,13 12,30 0,17 -4,30 -10,30 -5,0 -10,5 -10,10 0,15 80,13 81,-2 z m 73,6 c 24,-9 19,-33 -10,-44 -29,-12 -22,-34 8,-24 14,4 18,2 14,-5 -9,-15 -39,-14 -54,1 -22,22 -8,78 19,78 4,0 14,-3 23,-6 z m -478,-29 c 8,-33 -12,-57 -45,-53 -50,6 -36,78 15,78 17,0 25,-7 30,-25 z m 140,-10 c 0,-17 4,-36 8,-43 5,-8 0,-12 -13,-12 -17,0 -19,5 -14,35 5,29 3,35 -12,35 -15,0 -17,-6 -12,-35 4,-27 2,-35 -9,-35 -11,0 -14,9 -12,33 2,23 -1,32 -12,32 -8,0 -16,-10 -18,-22 -2,-13 1,-23 7,-23 6,0 11,-4 11,-10 0,-5 -10,-10 -22,-10 -20,0 -23,5 -23,44 l 0,44 60,-1 c 60,-2 60,-2 61,-32 z"
       id="path8" />
    <path
       d="m 2187,2113 c -10,-9 -9,-23 2,-23 5,0 11,7 15,15 5,15 -5,20 -17,8 z"
       id="path10" />
    <path
       d="m 2260,2125 c 0,-8 7,-15 15,-15 8,0 15,7 15,15 0,8 -7,15 -15,15 -8,0 -15,-7 -15,-15 z"
       id="path12" />
    <path
       d="m 2445,2140 c -3,-5 1,-10 9,-10 9,0 16,5 16,10 0,6 -4,10 -9,10 -6,0 -13,-4 -16,-10 z"
       id="path14" />
    <path
       d="m 1940,2114 c 0,-33 33,-30 38,4 3,17 -2,22 -17,22 -16,0 -21,-6 -21,-26 z"
       id="path16" />
    <path
       d="m 1641,2609 c -12,-34 -30,-46 -69,-47 -21,0 -39,-8 -51,-23 -17,-21 -21,-22 -49,-10 -50,21 -112,-2 -112,-40 0,-23 -27,-25 -54,-4 -11,8 -30,15 -42,15 -33,0 -114,39 -114,55 0,24 -17,18 -59,-20 -25,-23 -41,-48 -45,-70 -7,-37 -18,-41 -60,-26 -16,7 -26,20 -29,38 -4,27 -4,27 -12,6 -6,-19 -15,-23 -53,-23 -69,0 -95,-55 -52,-110 24,-31 24,-44 0,-99 l -20,-44 -46,7 c -27,3 -59,17 -82,35 -20,16 -47,32 -59,36 -13,3 -23,14 -23,23 0,24 28,62 46,62 23,0 16,27 -13,50 -23,18 -29,19 -31,6 -2,-8 -12,-18 -23,-21 -11,-4 -25,-18 -32,-31 -6,-15 -22,-28 -39,-31 -15,-3 -30,-14 -33,-24 -8,-26 -32,-24 -46,4 -18,33 -31,38 -57,21 -13,-8 -34,-14 -46,-12 -15,2 -36,-9 -60,-30 -20,-17 -46,-32 -56,-32 -11,0 -20,-4 -20,-10 0,-5 11,-10 24,-10 37,0 67,-31 69,-70 2,-29 -2,-36 -21,-38 -26,-4 -27,-10 -7,-36 20,-26 20,-110 0,-126 -8,-6 -23,-9 -36,-5 -19,6 -20,4 -16,-22 3,-15 8,-48 12,-74 4,-36 11,-48 35,-63 17,-9 34,-14 40,-11 5,3 19,1 32,-6 20,-11 20,-13 5,-24 -15,-11 -15,-13 -3,-18 9,-4 19,1 24,10 12,20 62,10 69,-15 2,-9 25,-30 50,-46 44,-28 46,-28 78,-13 31,15 34,15 47,-3 10,-14 18,-16 36,-9 12,4 22,15 22,24 0,17 26,20 36,4 4,-7 23,6 49,36 37,41 46,45 63,36 28,-15 32,-14 32,8 0,27 21,31 49,10 13,-11 37,-19 53,-19 62,0 87,-34 48,-67 -11,-10 -20,-20 -20,-24 0,-4 16,-30 35,-58 19,-28 35,-53 35,-56 0,-2 -14,-12 -31,-21 -30,-15 -31,-18 -25,-61 5,-36 2,-48 -11,-58 -15,-11 -13,-14 13,-28 16,-9 39,-21 52,-26 12,-6 22,-15 22,-21 0,-5 15,-10 33,-10 27,0 35,5 44,30 10,25 17,30 46,30 42,0 62,21 53,55 -5,19 -2,25 9,25 21,0 95,-60 95,-76 0,-8 15,-12 43,-12 40,0 45,2 55,33 15,39 -2,133 -26,151 -11,8 -13,20 -8,50 5,21 11,44 15,49 4,6 8,21 9,34 0,13 5,28 11,34 6,6 6,19 0,34 -12,32 -4,43 32,43 24,0 29,4 29,25 0,15 9,31 25,41 16,11 25,26 25,43 0,15 4,31 10,37 6,6 6,21 -2,42 -26,68 45,70 83,3 20,-36 25,-39 53,-34 48,9 56,19 43,53 -8,20 -8,39 0,63 10,32 -1,67 -21,67 -12,0 -76,52 -76,61 0,5 15,9 33,9 17,0 43,9 57,20 l 25,19 -22,40 c -13,23 -19,42 -13,46 14,8 1,36 -33,72 -17,18 -29,35 -26,37 2,2 20,8 39,13 29,8 36,14 38,39 2,16 8,34 13,40 6,8 -1,13 -23,18 -18,3 -42,16 -55,28 l -22,21 -10,-24 z M 738,2053 c 9,-34 20,-53 30,-53 11,0 13,9 10,38 -5,36 -4,37 21,36 14,-1 28,-3 31,-4 3,-1 35,-1 73,-1 37,0 67,-3 68,-7 6,-75 5,-82 -9,-82 -11,0 -13,8 -8,36 6,31 5,35 -11,32 -19,-3 -32,-48 -14,-48 6,0 11,-4 11,-10 0,-5 -9,-10 -19,-10 -17,0 -19,5 -14,35 5,29 3,35 -12,35 -15,0 -17,-6 -12,-35 5,-30 3,-35 -14,-35 -16,0 -18,5 -13,25 9,36 -2,61 -21,45 -8,-6 -20,-8 -26,-4 -9,5 -11,-2 -6,-29 l 6,-37 -45,0 c -24,0 -44,5 -44,10 0,6 5,10 11,10 5,0 7,5 4,10 -9,15 -42,12 -49,-5 -3,-9 0,-15 9,-15 8,0 15,-4 15,-10 0,-5 -13,-10 -29,-10 -17,0 -33,5 -36,10 -3,6 -2,10 4,10 8,0 51,81 51,96 0,2 -7,4 -16,4 -8,0 -12,5 -9,11 4,5 16,9 28,7 15,-2 24,-16 35,-55 z m 310,-16 c 2,-21 7,-35 13,-32 5,4 9,0 9,-8 0,-10 -10,-14 -30,-13 -37,2 -59,21 -43,37 6,6 9,18 6,26 -6,16 15,35 32,30 6,-2 11,-20 13,-40 z m 186,34 c 11,-17 10,-85 -2,-89 -8,-2 -12,9 -12,38 0,29 -4,40 -12,37 -8,-2 -13,-19 -12,-41 1,-28 -3,-36 -16,-36 -15,0 -17,6 -13,39 4,29 1,39 -11,44 -16,6 -17,5 -20,-73 -1,-20 -7,-26 -28,-28 -20,-2 -28,1 -28,12 0,9 5,16 11,16 5,0 7,-5 3,-11 -4,-7 -1,-10 6,-7 19,6 24,28 7,28 -8,0 -20,7 -28,16 -16,20 -2,46 32,55 30,8 118,8 123,0 z m 74,-3 c 7,-7 12,-22 12,-35 0,-13 5,-23 11,-23 6,0 9,7 6,15 -10,24 26,59 51,51 25,-8 30,-36 7,-36 -8,0 -15,5 -15,10 0,15 -17,12 -24,-5 -10,-28 5,-47 33,-40 24,6 25,5 10,-10 -13,-13 -21,-15 -37,-6 -13,7 -23,8 -27,1 -7,-12 -63,-6 -78,9 -8,8 -8,14 0,22 6,6 9,18 6,26 -3,8 0,19 8,24 18,12 23,11 37,-3 z"
       id="path18" />
    <path
       d="m 706,2055 c -3,-9 0,-15 9,-15 9,0 12,6 9,15 -4,8 -7,15 -9,15 -2,0 -5,-7 -9,-15 z"
       id="path20" />
    <path
       d="m 1015,2050 c -3,-5 -2,-10 4,-10 5,0 13,5 16,10 3,6 2,10 -4,10 -5,0 -13,-4 -16,-10 z"
       id="path22" />
    <path
       d="m 1020,2020 c -8,-5 -11,-12 -7,-16 4,-4 13,-2 19,4 6,6 10,14 7,16 -2,3 -11,1 -19,-4 z"
       id="path24" />
    <path
       d="m 1095,2039 c -10,-15 1,-23 20,-15 9,3 13,10 10,16 -8,13 -22,13 -30,-1 z"
       id="path26" />
    <path
       d="m 1275,2050 c -3,-5 1,-10 9,-10 9,0 16,5 16,10 0,6 -4,10 -9,10 -6,0 -13,-4 -16,-10 z"
       id="path28" />
    <path
       d="m 1283,2023 c -18,-7 -16,-23 2,-23 8,0 15,7 15,15 0,8 -1,15 -2,14 -2,0 -9,-3 -15,-6 z"
       id="path30" />
    <path
       d="m 1574,2046 c -3,-8 0,-24 6,-36 9,-16 9,-25 1,-33 -6,-6 -11,-23 -11,-37 0,-15 -11,-37 -26,-50 -17,-17 -23,-31 -20,-46 6,-24 -9,-34 -50,-34 -27,0 -28,-3 -14,-31 8,-14 7,-25 -5,-42 -14,-20 -14,-23 7,-39 l 23,-16 -28,-7 c -17,-5 -29,-16 -33,-31 -10,-37 2,-54 37,-54 17,0 53,-10 80,-22 39,-18 48,-27 43,-41 -5,-16 -3,-17 14,-8 31,17 53,13 59,-9 3,-10 13,-22 23,-25 11,-3 20,-16 22,-28 2,-18 11,-23 48,-27 43,-5 46,-7 74,-62 32,-66 43,-69 130,-43 l 49,15 44,-36 c 24,-20 50,-52 58,-72 15,-33 16,-34 29,-16 14,18 15,18 34,-6 l 21,-25 20,20 c 35,35 50,45 65,45 7,0 17,7 20,16 7,19 -20,54 -42,54 -21,0 -105,79 -120,114 -15,34 2,104 27,114 9,3 21,12 27,20 7,10 23,13 46,10 36,-4 36,-4 41,41 4,35 12,51 36,70 33,28 41,51 16,51 -8,0 -15,6 -15,14 0,11 -9,13 -35,9 -34,-5 -35,-4 -35,24 0,17 -7,36 -15,43 -12,10 -15,10 -15,-3 0,-15 -56,-41 -70,-32 -4,3 -10,-2 -14,-10 -8,-23 -67,-18 -106,9 -26,18 -44,22 -72,18 -51,-6 -88,4 -88,26 0,28 -60,54 -129,55 -53,1 -61,4 -61,21 0,24 -60,134 -78,141 -7,2 -15,-2 -18,-9 z m 191,-371 c 8,-30 20,-55 25,-55 6,0 10,-4 10,-10 0,-5 -12,-10 -26,-10 -21,0 -24,3 -19,21 6,17 3,20 -16,17 -26,-4 -39,-28 -14,-28 9,0 13,-4 10,-10 -3,-5 -19,-10 -36,-10 -16,0 -29,5 -29,10 0,6 4,10 9,10 4,0 18,23 29,50 17,41 18,50 6,50 -7,0 -14,5 -14,10 0,6 11,10 24,10 21,0 27,-8 41,-55 z m 245,36 c 0,-14 5,-18 20,-14 21,6 24,-1 20,-49 -1,-18 4,-28 12,-28 10,0 10,-2 -2,-9 -22,-15 -29,-4 -23,34 5,29 3,35 -12,35 -14,0 -16,-7 -13,-35 4,-36 -15,-56 -35,-36 -7,7 -16,7 -28,1 -23,-13 -47,-3 -54,21 -9,28 3,57 26,64 25,8 55,-13 39,-29 -8,-8 -13,-7 -20,4 -12,19 -33,0 -28,-26 2,-13 13,-19 41,-19 37,-2 37,-2 37,40 0,22 -5,46 -12,53 -9,9 -7,12 10,12 15,0 22,-6 22,-19 z m -128,-33 c -16,-16 -16,-62 -1,-52 7,4 10,1 7,-7 -3,-9 -15,-13 -34,-10 -39,4 -44,8 -44,35 0,12 -5,27 -12,34 -9,9 0,12 42,12 42,0 51,-3 42,-12 z"
       id="path32" />
    <path
       d="m 1736,1681 c -4,-7 -5,-15 -2,-18 9,-9 19,4 14,18 -4,11 -6,11 -12,0 z"
       id="path34" />
    <path
       d="m 1825,1660 c -7,-21 0,-40 16,-40 5,0 9,14 9,30 0,34 -15,40 -25,10 z"
       id="path36" />
    <path
       d="m 2542,1980 c -17,-16 -29,-19 -65,-14 -39,6 -46,3 -61,-17 l -16,-24 -63,23 c -34,12 -65,22 -69,22 -4,0 -1,-18 8,-40 15,-37 15,-42 -3,-72 -10,-18 -17,-44 -15,-56 3,-20 8,-23 29,-17 19,4 31,0 49,-20 32,-34 30,-48 -7,-80 -17,-14 -29,-29 -25,-32 3,-4 -1,-14 -9,-23 -12,-13 -12,-20 -1,-42 8,-15 12,-29 9,-32 -3,-3 -26,-2 -51,1 -35,5 -46,3 -54,-11 -5,-9 -14,-14 -19,-10 -17,10 -40,-62 -29,-90 12,-32 86,-109 98,-102 5,3 23,-9 40,-27 24,-25 29,-38 25,-59 -3,-16 -11,-28 -18,-28 -23,0 -75,-32 -75,-46 0,-18 -30,-18 -57,1 -19,14 -22,13 -37,-10 -9,-14 -24,-25 -33,-25 -28,0 -1,-18 32,-22 26,-3 31,-9 46,-58 16,-50 16,-56 1,-67 -9,-7 -24,-13 -34,-13 -15,0 -17,-5 -12,-25 6,-22 3,-25 -23,-25 -17,0 -30,-5 -30,-12 0,-7 -4,-20 -7,-29 -5,-12 3,-19 34,-29 43,-14 46,-23 26,-71 -5,-12 4,-21 36,-37 24,-11 46,-18 51,-15 4,2 7,20 7,39 l 0,35 43,-6 c 24,-4 72,-8 108,-9 35,-2 100,-10 144,-19 67,-13 83,-20 105,-46 14,-17 34,-31 45,-31 26,0 40,-10 48,-34 11,-30 19,-12 26,56 6,60 8,63 34,66 23,3 26,7 21,28 -4,16 -1,29 8,37 26,21 29,46 8,57 -27,14 -26,57 0,65 11,3 20,11 20,16 0,5 6,9 13,9 20,0 38,45 25,58 -8,8 -7,21 2,44 32,78 73,100 103,56 16,-25 17,-25 33,30 2,6 16,12 32,12 15,0 45,9 67,20 22,11 47,20 57,20 12,0 18,8 18,23 0,32 -30,58 -58,50 -28,-7 -61,30 -62,70 0,25 -3,27 -43,27 -24,0 -52,6 -63,14 -16,13 -17,18 -6,35 11,19 10,21 -11,21 -13,0 -34,11 -47,24 -21,24 -23,34 -9,86 3,9 -8,18 -30,26 -19,6 -38,20 -42,30 -4,11 -23,28 -43,39 -23,13 -36,27 -36,40 0,11 -9,26 -21,33 -11,7 -29,33 -40,58 -22,50 -28,52 -54,24 -24,-27 -49,-25 -64,4 -11,20 -11,31 4,70 10,26 22,49 27,52 9,6 1,24 -11,24 -4,0 -17,-9 -29,-20 z m 178,-655 c 0,-7 6,-16 13,-19 10,-5 10,-7 0,-12 -16,-7 -17,-54 -2,-54 5,0 7,5 4,10 -3,6 -1,10 5,10 18,0 7,-34 -12,-38 -21,-4 -33,38 -29,106 1,24 21,21 21,-3 z m -257,-32 c 17,-58 43,-73 34,-20 l -5,35 56,-2 c 31,0 63,-5 70,-9 7,-5 12,-4 12,2 0,15 40,14 45,-1 2,-7 6,-26 7,-42 2,-22 -2,-29 -16,-32 -47,-7 -64,33 -23,55 22,11 21,11 -3,4 -14,-3 -33,-6 -42,-5 -12,0 -18,-6 -18,-19 0,-10 5,-19 10,-19 6,0 10,-4 10,-10 0,-5 -9,-10 -19,-10 -11,0 -23,5 -26,10 -3,6 -1,10 4,10 6,0 11,12 11,27 0,21 -3,24 -12,15 -8,-8 -15,-9 -25,-1 -10,9 -13,6 -13,-15 0,-14 5,-26 11,-26 5,0 7,-4 4,-10 -3,-5 -24,-10 -46,-10 -36,0 -40,2 -34,20 5,15 2,20 -13,20 -11,0 -22,-7 -26,-15 -3,-9 0,-15 9,-15 8,0 15,-4 15,-10 0,-5 -13,-10 -30,-10 -16,0 -30,1 -30,3 0,1 11,25 24,52 20,41 22,51 10,53 -20,5 -7,22 16,22 14,0 23,-12 33,-47 z m 357,1 c 0,-11 -6,-14 -22,-9 l -23,6 23,-17 c 37,-27 24,-62 -18,-49 -29,9 -25,27 5,19 15,-4 25,-2 25,5 0,6 -9,11 -19,11 -31,0 -37,21 -12,42 25,19 41,16 41,-8 z m -456,-177 c 8,-6 8,-10 -1,-14 -15,-6 -18,-53 -3,-53 6,0 10,5 10,10 0,6 5,10 11,10 6,0 9,-8 7,-17 -2,-10 -12,-18 -23,-18 -14,0 -21,8 -23,28 -4,31 -2,30 -36,17 -31,-11 -35,-35 -6,-27 11,3 20,1 20,-4 0,-16 -49,-9 -58,9 -22,40 24,82 56,50 9,-9 12,-6 12,13 0,31 14,48 19,22 2,-10 8,-22 15,-26 z m 156,21 c 0,-17 -3,-18 -15,-8 -14,11 -35,6 -35,-8 0,-4 15,-16 34,-26 27,-14 38,-16 53,-7 16,11 15,11 -6,5 -17,-4 -22,-2 -19,7 6,18 48,25 48,8 0,-9 3,-9 14,0 8,7 41,10 82,9 54,-2 69,-6 72,-19 2,-11 -6,-19 -23,-23 -14,-4 -23,-11 -20,-17 4,-5 16,-7 27,-3 14,4 18,2 14,-5 -21,-33 -74,8 -59,45 4,12 3,15 -5,10 -7,-4 -12,-11 -12,-16 0,-5 -5,-21 -11,-37 l -11,-28 -19,38 c -22,41 -42,44 -47,8 -3,-16 0,-21 8,-16 8,5 11,3 8,-5 -5,-15 -41,-20 -59,-9 -7,4 -23,2 -36,-4 -20,-9 -27,-7 -45,11 -12,12 -19,25 -15,28 4,4 13,-1 21,-11 8,-11 20,-16 30,-12 24,10 19,25 -14,42 -46,24 -35,58 20,62 14,1 20,-4 20,-19 z m 300,-34 c 0,-11 -6,-14 -22,-9 -23,6 -23,6 1,-13 16,-13 22,-25 18,-36 -8,-20 -48,-18 -55,2 -3,9 3,11 22,6 16,-4 26,-2 26,5 0,6 -9,11 -19,11 -31,0 -37,21 -12,42 25,19 41,16 41,-8 z"
       id="path38" />
    <path
       d="m 2435,1291 c -3,-5 -1,-12 5,-16 5,-3 10,1 10,9 0,18 -6,21 -15,7 z"
       id="path40" />
    <path
       d="m 2640,1250 c 0,-5 5,-10 10,-10 6,0 10,5 10,10 0,6 -4,10 -10,10 -5,0 -10,-4 -10,-10 z"
       id="path42" />
    <path
       d="m 2275,1090 c -8,-13 5,-13 25,0 13,8 13,10 -2,10 -9,0 -20,-4 -23,-10 z"
       id="path44" />
    <path
       d="m 2637,1103 c -2,-5 -1,-17 3,-27 6,-19 7,-19 12,2 6,21 -6,40 -15,25 z"
       id="path46" />
    <path
       d="m 2705,1090 c -3,-6 1,-7 9,-4 18,7 21,14 7,14 -6,0 -13,-4 -16,-10 z"
       id="path48" />
    <path
       d="m 2550,1070 c -8,-5 -11,-12 -7,-16 4,-4 13,-2 19,4 15,15 7,24 -12,12 z"
       id="path50" />
    <path
       d="m 860,1788 c 0,-27 -26,-41 -48,-27 -17,10 -24,6 -62,-35 -32,-35 -46,-44 -56,-36 -9,8 -15,7 -21,-2 -4,-7 -20,-19 -35,-25 -23,-10 -30,-10 -43,3 -13,14 -20,14 -45,4 -27,-11 -34,-10 -73,15 -23,16 -52,40 -64,54 -20,23 -24,24 -47,11 -21,-11 -31,-11 -53,-1 -27,13 -27,13 -8,28 18,14 18,15 2,9 -10,-3 -27,-6 -38,-6 -10,0 -19,-6 -19,-12 0,-13 -50,-51 -81,-63 -11,-4 -15,-13 -12,-26 3,-10 -2,-30 -10,-43 -15,-22 -15,-25 -1,-30 21,-8 10,-56 -16,-75 -11,-7 -20,-22 -20,-32 0,-12 -7,-19 -20,-19 -34,0 -23,-28 13,-32 32,-3 32,-3 36,-61 1,-14 7,-16 41,-11 26,4 40,3 40,-4 0,-7 12,-4 29,6 28,16 30,16 48,-6 20,-25 59,-30 130,-18 36,7 43,12 48,37 8,34 30,48 48,30 6,-6 22,-11 37,-11 61,0 90,-30 90,-93 0,-32 45,-97 66,-97 8,0 22,-16 31,-35 14,-29 22,-35 49,-35 18,0 36,-5 39,-10 3,-5 19,-10 35,-10 34,0 60,-39 60,-89 0,-28 21,-61 40,-61 9,0 30,-54 30,-76 0,-8 -14,-21 -30,-29 l -31,-16 18,-29 c 11,-19 26,-30 39,-30 24,0 34,-17 34,-61 0,-19 5,-29 15,-29 8,0 24,-5 34,-12 29,-18 147,37 160,74 8,24 7,30 -9,41 -22,13 -27,42 -9,52 13,9 3,213 -12,232 -7,7 -21,10 -34,7 -19,-5 -23,0 -30,28 -4,18 -7,41 -6,51 2,12 -5,17 -23,17 -28,0 -42,16 -38,43 3,18 -13,24 -23,7 -3,-5 -26,-10 -51,-10 -40,0 -44,2 -44,24 0,13 -7,26 -15,30 -17,6 -20,42 -4,52 6,3 -2,14 -20,25 l -30,18 17,33 c 9,18 18,35 19,37 2,2 9,-1 16,-7 21,-18 26,-5 20,48 -5,46 -4,49 26,65 l 32,16 -30,42 c -42,59 -49,93 -21,100 35,9 18,31 -28,38 -23,3 -50,14 -62,24 -17,15 -20,16 -20,3 z M 247,1586 c -3,-8 -2,-27 3,-43 8,-28 8,-28 11,-3 1,14 2,33 1,43 -1,12 6,17 23,17 27,0 34,-14 11,-23 -7,-3 -18,-22 -23,-43 -12,-52 -30,-54 -38,-5 -4,23 -11,43 -16,47 -16,10 -9,24 12,24 14,0 19,-5 16,-14 z m 313,10 c 0,-14 -14,-36 -22,-36 -5,0 -6,5 -3,10 3,6 1,10 -4,10 -15,0 -14,-77 2,-83 6,-3 -5,-6 -26,-6 -26,-1 -40,4 -44,15 -8,22 10,50 31,46 9,-2 16,2 16,8 0,5 -4,10 -10,10 -20,0 -10,19 13,23 34,7 47,7 47,3 z m -163,-26 c -3,-12 -2,-34 3,-50 8,-27 6,-30 -13,-31 -12,-1 -35,-2 -52,-3 -26,-1 -30,3 -31,24 -1,37 6,50 27,50 14,0 19,-7 19,-28 0,-19 5,-29 15,-29 19,0 21,73 3,80 -7,3 -2,6 11,6 19,1 22,-3 18,-19 z m 234,-25 c 11,-45 29,-61 29,-26 0,22 23,44 35,33 4,-4 4,3 1,16 -6,17 -3,22 10,22 14,0 16,-7 11,-37 -4,-22 -2,-42 6,-51 10,-13 6,-14 -26,-10 -20,2 -37,0 -37,-4 0,-4 -9,-8 -21,-8 -16,0 -19,4 -14,20 7,22 -2,25 -25,10 -13,-8 -13,-11 -1,-19 11,-7 9,-10 -8,-16 -32,-10 -34,-3 -12,46 11,24 16,46 11,47 -18,6 -10,22 10,22 15,0 22,-11 31,-45 z m 164,-20 c 0,-25 -4,-30 -25,-30 -16,0 -26,6 -28,18 -6,30 6,49 30,45 18,-2 23,-9 23,-33 z m 140,25 c 3,-6 -1,-13 -10,-16 -11,-5 -15,-14 -11,-29 6,-22 4,-23 -41,-19 -58,6 -60,7 -65,44 l -5,30 63,0 c 35,0 66,-5 69,-10 z"
       id="path52" />
    <path
       d="m 480,1520 c 0,-11 5,-20 10,-20 6,0 10,9 10,20 0,11 -4,20 -10,20 -5,0 -10,-9 -10,-20 z"
       id="path54" />
    <path
       d="m 320,1539 c 0,-5 5,-7 10,-4 6,3 10,8 10,11 0,2 -4,4 -10,4 -5,0 -10,-5 -10,-11 z"
       id="path56" />
    <path
       d="m 315,1510 c -3,-5 1,-10 9,-10 9,0 16,5 16,10 0,6 -4,10 -9,10 -6,0 -13,-4 -16,-10 z"
       id="path58" />
    <path
       d="m 606,1545 c -3,-8 -1,-15 4,-15 6,0 10,7 10,15 0,8 -2,15 -4,15 -2,0 -6,-7 -10,-15 z"
       id="path60" />
    <path
       d="m 675,1530 c -7,-12 2,-30 16,-30 5,0 9,9 9,20 0,21 -15,27 -25,10 z"
       id="path62" />
    <path
       d="m 750,1526 c 0,-21 21,-31 30,-15 5,7 6,17 4,21 -9,14 -34,9 -34,-6 z"
       id="path64" />
    <path
       d="m 830,1525 c 0,-14 5,-25 10,-25 6,0 10,11 10,25 0,14 -4,25 -10,25 -5,0 -10,-11 -10,-25 z"
       id="path66" />
    <path
       d="m 872,1538 c -17,-17 -15,-38 3,-38 9,0 15,9 15,25 0,29 -1,30 -18,13 z"
       id="path68" />
    <path
       d="m 1450,1563 c 1,-10 5,-38 9,-63 7,-34 5,-52 -8,-80 -16,-34 -18,-35 -71,-35 -49,0 -55,2 -58,23 -2,12 -10,22 -17,22 -8,0 -19,9 -25,20 -15,27 -28,25 -23,-4 6,-29 -28,-56 -70,-56 -22,0 -30,-6 -38,-30 -10,-27 -15,-30 -55,-30 -31,0 -46,5 -50,15 -4,9 -26,24 -49,35 -23,11 -46,27 -49,37 -7,17 -8,17 -18,-1 -9,-15 -7,-22 7,-32 10,-7 22,-15 28,-17 6,-2 4,-12 -4,-26 -12,-19 -12,-23 4,-32 9,-6 17,-21 17,-34 0,-32 29,-33 77,-4 39,24 48,20 48,-24 0,-30 2,-32 33,-29 35,4 37,1 22,-28 -11,-21 6,-73 21,-64 15,9 109,-62 109,-82 0,-5 -9,-15 -20,-22 -11,-6 -17,-17 -15,-24 2,-7 6,-44 9,-83 2,-38 10,-83 17,-98 10,-22 10,-33 2,-47 -7,-11 -9,-29 -4,-46 6,-23 13,-28 37,-29 27,0 29,-2 26,-38 -3,-43 -9,-42 80,-15 44,13 68,0 68,-37 0,-13 7,-26 16,-29 28,-11 54,-6 54,9 0,24 22,27 65,9 22,-9 71,-18 110,-20 38,-2 71,-8 73,-14 2,-5 14,-10 26,-10 12,0 31,-7 42,-15 11,-8 42,-14 75,-15 63,0 79,12 147,110 28,41 45,56 67,60 l 30,5 -25,18 c -13,9 -32,17 -42,17 -10,0 -18,5 -18,10 0,6 -7,10 -16,10 -12,0 -15,9 -12,42 3,41 2,43 -32,54 -26,9 -36,18 -38,37 -3,20 2,26 20,29 17,2 22,8 20,26 -3,18 1,22 26,22 26,0 29,3 25,24 -5,22 -1,26 32,32 28,5 35,10 30,23 -4,9 -12,28 -17,44 -7,18 -17,27 -31,27 -20,1 -77,41 -77,55 0,3 13,5 28,5 16,0 31,3 34,6 13,12 -27,85 -63,113 l -38,31 -65,-17 c -79,-21 -90,-16 -126,53 -23,46 -28,49 -70,54 -34,4 -46,10 -49,25 -2,10 -17,32 -34,48 -27,25 -33,27 -54,16 -20,-11 -26,-11 -33,1 -4,7 -6,18 -4,24 4,10 -81,56 -105,56 -6,0 -11,-8 -11,-17 z m 170,-439 c 0,-8 6,-14 13,-14 7,-1 4,-7 -7,-15 -14,-11 -17,-20 -11,-42 6,-21 9,-23 12,-10 3,9 10,17 17,17 7,0 21,7 32,15 18,14 18,15 0,8 -13,-4 -17,-2 -14,8 2,8 14,15 26,17 19,3 22,-1 22,-31 0,-24 4,-34 16,-34 12,0 15,7 11,32 -5,30 -3,32 24,33 16,0 29,-4 29,-10 0,-6 6,-6 15,2 23,19 43,5 47,-32 3,-28 5,-30 12,-13 15,39 23,50 41,53 25,5 42,-15 26,-30 -11,-10 -14,-10 -18,0 -8,22 -23,13 -23,-14 0,-24 3,-25 28,-19 25,6 26,5 11,-10 -13,-13 -21,-15 -37,-6 -12,6 -23,7 -26,3 -4,-7 -39,-8 -68,-3 -16,2 -7,29 15,45 19,15 19,16 2,10 -11,-4 -28,-7 -38,-8 -15,0 -18,-6 -13,-28 5,-27 5,-27 -44,-25 -27,2 -52,6 -56,9 -3,4 -15,2 -25,-5 -31,-19 -44,12 -40,101 1,25 21,21 21,-4 z m -130,-32 c 12,-45 15,-48 46,-49 19,-1 34,3 34,8 0,5 -7,9 -15,9 -24,0 -31,31 -10,46 26,19 35,17 35,-6 0,-13 -5,-18 -15,-14 -8,4 -15,2 -15,-4 0,-5 9,-12 20,-15 11,-3 20,-12 20,-21 0,-18 2,-17 -63,-22 -44,-3 -48,-2 -42,17 6,17 3,20 -16,17 -26,-4 -39,-28 -14,-28 9,0 13,-4 10,-10 -3,-5 -17,-10 -30,-10 -13,0 -27,5 -30,10 -3,6 -2,10 2,10 5,0 19,20 31,45 18,37 19,45 7,45 -8,0 -15,5 -15,10 0,6 11,10 24,10 20,0 26,-7 36,-48 z"
       id="path70" />
    <path
       d="m 1670,1050 c 0,-5 4,-10 9,-10 6,0 13,5 16,10 3,6 -1,10 -9,10 -9,0 -16,-4 -16,-10 z"
       id="path72" />
    <path
       d="m 1810,1050 c 0,-5 5,-10 10,-10 6,0 10,5 10,10 0,6 -4,10 -10,10 -5,0 -10,-4 -10,-10 z"
       id="path74" />
    <path
       d="m 1460,1085 c 0,-8 5,-15 10,-15 6,0 10,7 10,15 0,8 -4,15 -10,15 -5,0 -10,-7 -10,-15 z"
       id="path76" />
    <g
       id="ubenthier"
       transform="matrix(1.4631367,0,0,1.5193625,2263.2831,-925.18803)">
      <path
         sodipodi:nodetypes="ccscscccccccccscc"
         inkscape:connector-curvature="0"
         id="path3057"
         d="m -107.65625,173.5625 -0.5,0.78125 c -3.24565,0.0947 -6.43467,1.49656 -8.69876,3.82402 -2.26409,2.32746 -3.57745,5.55396 -3.58249,8.80098 0.002,2.71896 1.72897,5.15434 3.69245,7.21817 0.5241,0.55088 1.06507,1.07529 1.59463,1.57155 l 3.0354,5.61543 4.45877,8.40735 4.71017,-8.52448 3.820286,-6.52531 c 0.875022,-0.98454 2.345688,-1.46315 2.875794,-2.66896 l 0.25,-0.375 -0.0625,-0.0937 c 0.587413,-1.46698 0.896584,-3.04481 0.90625,-4.625 -0.0021,-3.202 -1.275042,-6.3859 -3.481021,-8.70678 -2.205979,-2.32087 -5.321209,-3.75369 -8.518979,-3.91822 z"
         style="fill:#ff0000;stroke:#000000;stroke-opacity:1"
         transform="matrix(8,0,0,-8,0,3240)" />
      <path
         transform="matrix(9.2616581,0,0,-10.835971,-1260.2766,5726.8637)"
         d="m 47.621823,367.24576 a 4.9337926,4.2902541 0 1 1 -9.867585,0 4.9337926,4.2902541 0 1 1 9.867585,0 z"
         sodipodi:ry="4.2902541"
         sodipodi:rx="4.9337926"
         sodipodi:cy="367.24576"
         sodipodi:cx="42.68803"
         id="path3041"
         style="fill:#000000;stroke:#e8ece1;stroke-width:0.91666967000000021;stroke-linejoin:round;stroke-miterlimit:4;stroke-opacity:1;stroke-dasharray:none"
         sodipodi:type="arc" />
    </g>
  </g>
</svg>
